<?xml version="1.0" encoding="UTF-8"?>
<svg xmlns="http://www.w3.org/2000/svg" xmlns:xlink="http://www.w3.org/1999/xlink" width="493px" height="103px" viewBox="0 0 491 103" version="1.1">
<g id="surface1">
<path style=" stroke:none;fill-rule:nonzero;fill:#4b574d;fill-opacity:1;" d="M 22.703125 5.972656 C 16.011719 7.394531 10.847656 13.128906 9.132812 21.015625 C 8.867188 22.25 8.84375 22.785156 8.84375 25.539062 C 8.84375 28.289062 8.867188 28.824219 9.132812 30.058594 C 9.585938 32.109375 10.117188 33.636719 11.085938 35.578125 C 13.210938 39.875 16.859375 43.214844 20.882812 44.558594 C 21.613281 44.808594 21.773438 44.902344 21.773438 45.140625 C 21.773438 45.300781 21.136719 55.703125 20.367188 68.246094 C 19.570312 81.292969 18.996094 91.414062 19.039062 91.90625 C 19.183594 93.636719 20.324219 95.234375 22.011719 96.058594 L 22.902344 96.496094 L 28.476562 96.496094 L 29.367188 96.058594 C 30.402344 95.550781 31.25 94.753906 31.757812 93.824219 C 32.527344 92.398438 32.566406 93.796875 31.011719 68.5 C 30.242188 55.808594 29.605469 45.289062 29.605469 45.140625 C 29.605469 44.917969 29.777344 44.796875 30.507812 44.558594 C 35.394531 42.90625 39.707031 38.238281 41.554688 32.601562 C 42.402344 30.007812 42.535156 28.980469 42.535156 25.539062 C 42.535156 22.785156 42.511719 22.25 42.246094 21.015625 C 41.316406 16.773438 39.429688 13.167969 36.695312 10.425781 C 35.527344 9.269531 33.695312 7.914062 32.40625 7.25 C 31.4375 6.769531 29.59375 6.144531 28.410156 5.933594 C 26.910156 5.640625 24.164062 5.667969 22.703125 5.972656 Z M 22.703125 5.972656 "/>
<path style=" stroke:none;fill-rule:nonzero;fill:#4b574d;fill-opacity:1;" d="M 56.953125 24.300781 C 56.953125 36.871094 57.007812 43.054688 57.101562 43.398438 C 57.273438 44.050781 57.9375 44.796875 58.613281 45.101562 C 59.089844 45.328125 59.570312 45.355469 63.167969 45.355469 C 66.617188 45.355469 67.175781 45.382812 67.175781 45.554688 C 67.175781 45.660156 66.550781 55.996094 65.769531 68.523438 C 65 81.054688 64.414062 91.601562 64.453125 91.945312 C 64.667969 93.703125 65.796875 95.257812 67.414062 96.058594 L 68.304688 96.496094 L 73.882812 96.496094 L 74.769531 96.070312 C 76.484375 95.257812 77.636719 93.597656 77.757812 91.800781 C 77.8125 91.082031 75.367188 49.769531 75.0625 46.3125 L 74.984375 45.355469 L 83.175781 45.355469 L 83.851562 44.957031 C 84.394531 44.648438 84.621094 44.410156 84.886719 43.867188 L 85.230469 43.171875 L 85.230469 5.71875 L 84.117188 5.71875 C 83.066406 5.71875 83 5.734375 82.933594 6.011719 C 82.894531 6.183594 81.832031 12.554688 80.558594 20.175781 L 78.261719 34.050781 L 74.636719 34.050781 L 74.558594 33.34375 C 74.519531 32.972656 74 26.789062 73.417969 19.617188 C 72.832031 12.449219 72.3125 6.382812 72.273438 6.144531 L 72.207031 5.71875 L 69.992188 5.71875 L 69.910156 6.410156 C 69.871094 6.796875 69.355469 12.980469 68.769531 20.152344 C 68.1875 27.320312 67.667969 33.382812 67.628906 33.609375 L 67.5625 34.050781 L 65.78125 34.050781 C 64.800781 34.050781 63.992188 34.035156 63.976562 34.007812 C 63.976562 33.996094 62.914062 27.640625 61.628906 19.882812 L 59.265625 5.785156 L 56.953125 5.707031 Z M 56.953125 24.300781 "/>
<path style=" stroke:none;fill-rule:nonzero;fill:#4b574d;fill-opacity:1;" d="M 123.996094 29.792969 C 116.351562 30.351562 109.964844 33.941406 105.917969 39.96875 C 102.902344 44.464844 101.46875 50.527344 101.945312 56.792969 C 102.425781 62.953125 104.347656 67.449219 108.121094 71.238281 C 110.550781 73.660156 112.871094 75.09375 116.097656 76.121094 C 118.898438 77.011719 121.023438 77.304688 124.726562 77.316406 C 129.628906 77.316406 133.078125 76.757812 136.648438 75.386719 L 137.671875 75.003906 L 137.671875 65.585938 L 136.316406 66.238281 C 134.660156 67.023438 133.027344 67.582031 131.167969 67.992188 C 129.945312 68.257812 129.402344 68.285156 126.785156 68.285156 C 123.957031 68.285156 123.734375 68.273438 122.472656 67.925781 C 116.351562 66.265625 112.714844 60.996094 112.714844 53.800781 C 112.714844 48.441406 114.597656 44.171875 118.15625 41.472656 C 119.339844 40.566406 121.410156 39.570312 123.003906 39.144531 C 124.25 38.8125 124.503906 38.785156 127.316406 38.785156 C 129.917969 38.785156 130.476562 38.8125 131.660156 39.078125 C 133.359375 39.449219 135.015625 40.035156 136.515625 40.78125 L 137.671875 41.363281 L 137.671875 31.417969 L 137.3125 31.28125 C 135.414062 30.539062 132.308594 29.992188 128.964844 29.792969 C 126.492188 29.648438 126.042969 29.648438 123.996094 29.792969 Z M 123.996094 29.792969 "/>
<path style=" stroke:none;fill-rule:nonzero;fill:#4b574d;fill-opacity:1;" d="M 165.472656 29.808594 C 158.050781 30.339844 151.929688 34.0625 148.1875 40.3125 C 144.191406 46.976562 143.59375 57.21875 146.78125 64.65625 C 149.035156 69.972656 153.761719 74.324219 159.234375 76.144531 C 162.167969 77.128906 165.65625 77.53125 169.003906 77.277344 C 173.332031 76.957031 176.863281 75.800781 179.96875 73.699219 C 185.757812 69.789062 189.078125 63.671875 189.726562 55.730469 C 190.230469 49.410156 188.878906 43.332031 185.957031 38.972656 C 182.253906 33.425781 176.808594 30.339844 169.800781 29.792969 C 167.835938 29.648438 167.636719 29.648438 165.472656 29.808594 Z M 170.796875 39.105469 C 175.097656 40.488281 177.710938 44 178.722656 49.746094 C 179 51.339844 178.949219 56.273438 178.640625 57.925781 C 177.566406 63.683594 174.394531 67.289062 169.613281 68.191406 C 168.085938 68.484375 165.285156 68.363281 164.023438 67.964844 C 160.492188 66.847656 157.863281 64.082031 156.523438 60.105469 C 155.753906 57.832031 155.410156 53.90625 155.714844 51.035156 C 156.285156 45.753906 158.703125 41.683594 162.351562 39.835938 C 164.15625 38.929688 165.3125 38.703125 167.875 38.757812 C 169.496094 38.796875 170.039062 38.863281 170.796875 39.105469 Z M 170.796875 39.105469 "/>
<path style=" stroke:none;fill-rule:nonzero;fill:#4b574d;fill-opacity:1;" d="M 218.046875 29.808594 C 210.625 30.339844 204.503906 34.0625 200.761719 40.3125 C 196.765625 46.976562 196.167969 57.21875 199.351562 64.65625 C 201.609375 69.972656 206.335938 74.324219 211.804688 76.144531 C 214.738281 77.128906 218.230469 77.53125 221.578125 77.277344 C 225.90625 76.957031 229.4375 75.800781 232.542969 73.699219 C 238.332031 69.789062 241.648438 63.671875 242.300781 55.730469 C 242.804688 49.410156 241.449219 43.332031 238.53125 38.972656 C 234.824219 33.425781 229.382812 30.339844 222.375 29.792969 C 220.410156 29.648438 220.210938 29.648438 218.046875 29.808594 Z M 223.367188 39.105469 C 227.671875 40.488281 230.285156 44 231.292969 49.746094 C 231.574219 51.339844 231.519531 56.273438 231.214844 57.925781 C 230.140625 63.683594 226.964844 67.289062 222.1875 68.191406 C 220.660156 68.484375 217.859375 68.363281 216.597656 67.964844 C 213.066406 66.847656 210.4375 64.082031 209.097656 60.105469 C 208.328125 57.832031 207.980469 53.90625 208.289062 51.035156 C 208.859375 45.753906 211.273438 41.683594 214.925781 39.835938 C 216.730469 38.929688 217.886719 38.703125 220.449219 38.757812 C 222.066406 38.796875 222.613281 38.863281 223.367188 39.105469 Z M 223.367188 39.105469 "/>
<path style=" stroke:none;fill-rule:nonzero;fill:#4b574d;fill-opacity:1;" d="M 360.761719 29.808594 C 353.339844 30.339844 347.222656 34.0625 343.476562 40.3125 C 339.480469 46.976562 338.882812 57.21875 342.070312 64.65625 C 344.328125 69.972656 349.054688 74.324219 354.523438 76.144531 C 357.457031 77.128906 360.949219 77.53125 364.292969 77.277344 C 368.621094 76.957031 372.152344 75.800781 375.257812 73.699219 C 381.046875 69.789062 384.367188 63.671875 385.019531 55.730469 C 385.523438 49.410156 384.167969 43.332031 381.246094 38.972656 C 377.542969 33.425781 372.101562 30.339844 365.089844 29.792969 C 363.125 29.648438 362.925781 29.648438 360.761719 29.808594 Z M 366.085938 39.105469 C 370.386719 40.488281 373.003906 44 374.011719 49.746094 C 374.289062 51.339844 374.238281 56.273438 373.933594 57.925781 C 372.855469 63.683594 369.683594 67.289062 364.90625 68.191406 C 363.378906 68.484375 360.578125 68.363281 359.316406 67.964844 C 355.785156 66.847656 353.15625 64.082031 351.8125 60.105469 C 351.042969 57.832031 350.699219 53.90625 351.003906 51.035156 C 351.574219 45.753906 353.992188 41.683594 357.640625 39.835938 C 359.449219 38.929688 360.601562 38.703125 363.164062 38.757812 C 364.785156 38.796875 365.328125 38.863281 366.085938 39.105469 Z M 366.085938 39.105469 "/>
<path style=" stroke:none;fill-rule:nonzero;fill:#4b574d;fill-opacity:1;" d="M 413.335938 29.808594 C 405.914062 30.339844 399.792969 34.0625 396.050781 40.3125 C 392.054688 46.976562 391.457031 57.21875 394.644531 64.65625 C 396.898438 69.972656 401.625 74.324219 407.09375 76.144531 C 410.03125 77.128906 413.519531 77.53125 416.867188 77.277344 C 421.195312 76.957031 424.726562 75.800781 427.832031 73.699219 C 433.621094 69.789062 436.941406 63.671875 437.589844 55.730469 C 438.09375 49.410156 436.742188 43.332031 433.820312 38.972656 C 430.117188 33.425781 424.671875 30.339844 417.664062 29.792969 C 415.699219 29.648438 415.5 29.648438 413.335938 29.808594 Z M 418.660156 39.105469 C 422.960938 40.488281 425.574219 44 426.585938 49.746094 C 426.863281 51.339844 426.808594 56.273438 426.503906 57.925781 C 425.429688 63.683594 422.257812 67.289062 417.476562 68.191406 C 415.949219 68.484375 413.148438 68.363281 411.886719 67.964844 C 408.355469 66.847656 405.726562 64.082031 404.386719 60.105469 C 403.617188 57.832031 403.273438 53.90625 403.578125 51.035156 C 404.148438 45.753906 406.566406 41.683594 410.214844 39.835938 C 412.019531 38.929688 413.175781 38.703125 415.738281 38.757812 C 417.359375 38.796875 417.902344 38.863281 418.660156 39.105469 Z M 418.660156 39.105469 "/>
<path style=" stroke:none;fill-rule:nonzero;fill:#4b574d;fill-opacity:1;" d="M 252.773438 53.535156 L 252.773438 76.613281 L 263.128906 76.613281 L 263.128906 65.304688 C 263.128906 59.082031 263.171875 54 263.238281 54 C 263.289062 54 263.570312 54.519531 263.847656 55.144531 C 264.191406 55.902344 266.621094 59.652344 271.164062 66.410156 L 277.960938 76.546875 L 284.492188 76.585938 L 291.011719 76.613281 L 289.882812 75.054688 C 281.558594 63.589844 273.683594 52.617188 273.683594 52.472656 C 273.683594 52.363281 277.148438 47.550781 281.386719 41.75 C 285.621094 35.953125 289.191406 31.042969 289.324219 30.832031 L 289.578125 30.457031 L 277.363281 30.457031 L 270.964844 40.128906 C 267.445312 45.433594 264.285156 50.34375 263.953125 51.035156 C 263.609375 51.710938 263.289062 52.269531 263.238281 52.269531 C 263.171875 52.269531 263.128906 47.363281 263.128906 41.363281 L 263.128906 30.457031 L 252.773438 30.457031 Z M 252.773438 53.535156 "/>
<path style=" stroke:none;fill-rule:nonzero;fill:#4b574d;fill-opacity:1;" d="M 298.046875 53.523438 L 298.046875 76.613281 L 307.046875 76.613281 C 316.339844 76.613281 318.730469 76.519531 320.894531 76.078125 C 327.425781 74.75 331.6875 70.640625 332.445312 64.972656 C 332.65625 63.3125 332.539062 60.96875 332.164062 59.785156 C 330.996094 56.046875 327.957031 53.308594 323.867188 52.285156 C 323.285156 52.152344 322.582031 51.992188 322.316406 51.9375 C 322.035156 51.898438 321.808594 51.820312 321.808594 51.765625 C 321.808594 51.710938 322.328125 51.5 322.964844 51.273438 C 324.53125 50.742188 326.164062 49.746094 327.480469 48.507812 C 328.832031 47.21875 329.695312 45.941406 330.214844 44.4375 C 330.558594 43.464844 330.625 43.054688 330.679688 41.632812 C 330.773438 38.570312 330.054688 36.578125 328.144531 34.648438 C 326.523438 33.027344 324.679688 32.015625 322.023438 31.335938 C 319.207031 30.589844 318.570312 30.566406 307.910156 30.5 L 298.046875 30.433594 Z M 315.890625 38.503906 C 318.929688 39.371094 320.308594 41.40625 319.832031 44.292969 C 319.539062 46.085938 318.53125 47.457031 316.910156 48.28125 C 315.558594 48.960938 314.773438 49.078125 311.429688 49.078125 L 308.402344 49.078125 L 308.402344 38.144531 L 311.761719 38.210938 C 314.375 38.253906 315.277344 38.320312 315.890625 38.503906 Z M 316.660156 56.992188 C 318.691406 57.417969 320.46875 58.640625 321.199219 60.144531 C 321.652344 61.078125 321.835938 62.445312 321.664062 63.644531 C 321.398438 65.597656 320.257812 67.140625 318.4375 68.03125 C 316.910156 68.777344 316.035156 68.898438 311.972656 68.898438 L 308.402344 68.898438 L 308.402344 56.792969 L 312.039062 56.792969 C 314.773438 56.792969 315.929688 56.847656 316.660156 56.992188 Z M 316.660156 56.992188 "/>
<path style=" stroke:none;fill-rule:nonzero;fill:#4b574d;fill-opacity:1;" d="M 448.066406 53.535156 L 448.066406 76.613281 L 458.421875 76.613281 L 458.421875 65.304688 C 458.421875 59.082031 458.460938 54 458.527344 54 C 458.578125 54 458.859375 54.519531 459.136719 55.144531 C 459.484375 55.902344 461.914062 59.652344 466.453125 66.410156 L 473.25 76.546875 L 479.78125 76.585938 L 486.300781 76.613281 L 485.171875 75.054688 C 476.847656 63.589844 468.976562 52.617188 468.976562 52.472656 C 468.976562 52.363281 472.441406 47.550781 476.675781 41.75 C 480.910156 35.953125 484.480469 31.042969 484.613281 30.832031 L 484.867188 30.457031 L 472.652344 30.457031 L 466.253906 40.128906 C 462.734375 45.433594 459.574219 50.34375 459.242188 51.035156 C 458.898438 51.710938 458.578125 52.269531 458.527344 52.269531 C 458.460938 52.269531 458.421875 47.363281 458.421875 41.363281 L 458.421875 30.457031 L 448.066406 30.457031 Z M 448.066406 53.535156 "/>
</g>
</svg>
